<svg width="60" height="60" xmlns="http://www.w3.org/2000/svg" xmlns:xlink="http://www.w3.org/1999/xlink">
 <defs>
  <path d="m44.5,20l-20.5,0l0,8.5l11.8,0c-1.1,5.4 -5.7,8.5 -11.8,8.5c-7.2,0 -13,-5.8 -13,-13s5.8,-13 13,-13c3.1,0 5.9,1.1 8.1,2.9l6.4,-6.4c-3.9,-3.4 -8.9,-5.5 -14.5,-5.5c-12.2,0 -22,9.8 -22,22s9.8,22 22,22c11,0 21,-8 21,-22c0,-1.3 -0.2,-2.7 -0.5,-4z" id="a"/>
 </defs>
 <clipPath id="b">
  <use x="6" y="6" id="svg_1" overflow="visible" xlink:href="#a"/>
 </clipPath>
 <g>
  <title>Layer 1</title>
  <ellipse stroke-width="0" stroke="#000" ry="30" rx="30" id="svg_7" cy="30" cx="30" fill="#ffffff"/>
  <g id="svg_6">
   <path id="svg_2" d="m6,43l0,-26l17,13l-17,13z" fill="#FBBC05" clip-path="url(#b)"/>
   <path id="svg_3" d="m6,17l17,13l7,-6.1l24,-3.9l0,-14l-48,0l0,11z" fill="#EA4335" clip-path="url(#b)"/>
   <path id="svg_4" d="m6,43l30,-23l7.9,1l10.1,-15l0,48l-48,0l0,-11z" fill="#34A853" clip-path="url(#b)"/>
   <path id="svg_5" d="m54,54l-31,-24l-4,-3l35,-10l0,37z" fill="#4285F4" clip-path="url(#b)"/>
  </g>
  <rect id="svg_8" height="2.74998" width="25.12478" y="24.62452" x="28.37501" stroke-width="0" stroke="#000" fill="#ffffff"/>
 </g>
</svg>